<svg xmlns="http://www.w3.org/2000/svg" xmlns:xlink="https://www.w3.org/1999/xlink" viewBox="0 0 432.37 276.42"><defs><style>.a{fill:url(#a);}.b{fill:url(#b);}.c{fill:url(#c);}.d{fill:url(#d);}.e{fill:url(#e);}.f{fill:url(#f);}.g{fill:url(#g);}.h{fill:url(#h);}.i{fill:url(#i);}.j{fill:url(#j);}.k{fill:url(#k);}.l{fill:url(#l);}.m{fill:url(#m);}.n{fill:url(#n);}.o{fill:url(#o);}.p{fill:url(#p);}.q{fill:url(#q);}.r{fill:url(#r);}.s{fill:url(#s);}.t{fill:url(#t);}.u,.v{fill:none;}.v{clip-rule:evenodd;}.w{isolation:isolate;}.x,.z{opacity:0.5;}.x{mix-blend-mode:multiply;}.y{clip-path:url(#u);}.aa{clip-path:url(#v);}.ab{clip-path:url(#w);}.ac{mask:url(#x);}.ad{fill:url(#y);}.ae{clip-path:url(#z);}.af{clip-path:url(#aa);}.ag{mask:url(#ab);}.ah{fill:url(#ac);}.ai{clip-path:url(#ad);}.aj{clip-path:url(#ae);}.ak{mask:url(#af);}.al{fill:url(#ag);}.am{clip-path:url(#ah);}.an{clip-path:url(#ai);}.ao{mask:url(#aj);}.ap{fill:url(#ak);}.aq{clip-path:url(#al);}.ar{clip-path:url(#am);}.as{mask:url(#an);}.at{fill:url(#ao);}.au{clip-path:url(#ap);}.av{clip-path:url(#aq);}.aw{mask:url(#ar);}.ax{fill:url(#as);}.ay{clip-path:url(#at);}.az{clip-path:url(#au);}.ba{mask:url(#av);}.bb{fill:url(#aw);}.bc{clip-path:url(#ax);}.bd{clip-path:url(#ay);}.be{mask:url(#az);}.bf{fill:url(#ba);}.bg{clip-path:url(#bb);}.bh{clip-path:url(#bc);}.bi{mask:url(#bd);}.bj{fill:url(#be);}.bk{clip-path:url(#bf);}.bl{clip-path:url(#bg);}.bm{mask:url(#bh);}.bn{fill:url(#bi);}.bo{opacity:0.2;}.bp{clip-path:url(#bj);}.bq{clip-path:url(#bk);}.br{mask:url(#bl);}.bs{fill:url(#bm);}.bt{clip-path:url(#bn);}.bu{clip-path:url(#bo);}.bv{mask:url(#bp);}.bw{fill:url(#bq);}.bx{clip-path:url(#br);}.by{clip-path:url(#bs);}.bz{mask:url(#bt);}.ca{fill:url(#bu);}.cb{clip-path:url(#bv);}.cc{clip-path:url(#bw);}.cd{mask:url(#bx);}.ce{fill:url(#by);}.cf{clip-path:url(#bz);}.cg{clip-path:url(#ca);}.ch{mask:url(#cb);}.ci{fill:url(#cc);}.cj{clip-path:url(#cd);}.ck{clip-path:url(#ce);}.cl{mask:url(#cf);}.cm{fill:url(#cg);}.cn{clip-path:url(#ch);}.co{clip-path:url(#ci);}.cp{mask:url(#cj);}.cq{fill:url(#ck);}.cr{clip-path:url(#cl);}.cs{clip-path:url(#cm);}.ct{mask:url(#cn);}.cu{fill:url(#co);}.cv{clip-path:url(#cp);}.cw{clip-path:url(#cq);}.cx{mask:url(#cr);}.cy{fill:url(#cs);}.cz{clip-path:url(#ct);}.da{clip-path:url(#cu);}.db{mask:url(#cv);}.dc{fill:url(#cw);}</style><linearGradient id="a" x1="-0.1" y1="595.28" x2="0.9" y2="595.28" gradientTransform="matrix(103.25, 0, 0, -103.25, 10.15, 61693.06)" gradientUnits="userSpaceOnUse"><stop offset="0" stop-color="#ccc"/><stop offset="1" stop-color="#fff"/></linearGradient><linearGradient id="b" x1="-0.09" y1="595.28" x2="0.91" y2="595.28" gradientTransform="matrix(108.66, 0, 0, -108.66, -32.55, 64944.2)" xlink:href="#a"/><linearGradient id="c" x1="-0.11" y1="595.47" x2="0.89" y2="595.47" gradientTransform="matrix(80.8, 0, 0, -80.8, 301.02, 48414.09)" gradientUnits="userSpaceOnUse"><stop offset="0"/><stop offset="1" stop-color="#fff"/></linearGradient><linearGradient id="d" x1="-0.09" y1="595.48" x2="0.91" y2="595.48" gradientTransform="matrix(93.51, 0, 0, -93.51, 191.2, 55979.75)" gradientUnits="userSpaceOnUse"><stop offset="0" stop-color="#666"/><stop offset="1" stop-color="#fff"/></linearGradient><linearGradient id="e" x1="-0.1" y1="595.18" x2="0.9" y2="595.18" gradientTransform="matrix(86.95, 0, 0, -86.95, 146.11, 52016.67)" xlink:href="#a"/><linearGradient id="f" x1="-0.1" y1="595.48" x2="0.9" y2="595.48" gradientTransform="matrix(84.67, 0, 0, -84.67, 342.41, 50683.13)" xlink:href="#c"/><linearGradient id="g" x1="-0.1" y1="595.22" x2="0.9" y2="595.22" gradientTransform="matrix(84.67, 0, 0, -84.67, 359.52, 50695.01)" gradientUnits="userSpaceOnUse"><stop offset="0"/><stop offset="0"/><stop offset="1" stop-color="#fff"/></linearGradient><linearGradient id="h" x1="-0.16" y1="595.25" x2="0.84" y2="595.25" gradientTransform="matrix(52.65, 0, 0, -52.65, 219.9, 31578.18)" xlink:href="#a"/><linearGradient id="i" x1="-0.09" y1="595.2" x2="0.91" y2="595.2" gradientTransform="matrix(96.5, 0, 0, -96.5, 293.95, 57695.22)" xlink:href="#a"/><linearGradient id="j" x1="0.09" y1="595.3" x2="1.09" y2="595.3" gradientTransform="matrix(0, -55.41, -55.41, 0, 33159.14, 386.85)" gradientUnits="userSpaceOnUse"><stop offset="0" stop-color="#999"/><stop offset="1" stop-color="#fff"/></linearGradient><linearGradient id="k" x1="0.09" y1="595.58" x2="1.09" y2="595.58" gradientTransform="matrix(0, -57.01, -57.01, 0, 34240.2, 317.51)" xlink:href="#a"/><linearGradient id="l" x1="-0.07" y1="595.16" x2="0.93" y2="595.16" gradientTransform="matrix(123.48, 0, 0, -123.48, 87.21, 73852.72)" xlink:href="#a"/><linearGradient id="m" x1="0" y1="595.23" x2="1" y2="595.23" gradientTransform="matrix(0, -297.78, -297.78, 0, 177287.55, 222.99)" xlink:href="#a"/><linearGradient id="n" x1="-0.09" y1="595.43" x2="0.91" y2="595.43" gradientTransform="matrix(98.53, 0, 0, -98.53, 61.74, 58928.41)" xlink:href="#a"/><linearGradient id="o" x1="-0.07" y1="595.49" x2="0.93" y2="595.49" gradientTransform="matrix(127.38, 0, 0, -127.38, -26.61, 76219.49)" xlink:href="#a"/><linearGradient id="p" x1="-0.09" y1="595.2" x2="0.91" y2="595.2" gradientTransform="matrix(93.51, 0, 0, -93.51, 207.91, 55987.33)" xlink:href="#a"/><linearGradient id="q" x1="-0.11" y1="595.31" x2="0.89" y2="595.31" gradientTransform="matrix(80.8, 0, 0, -80.8, 316.94, 48433.23)" xlink:href="#c"/><linearGradient id="r" x1="0" y1="595.24" x2="1" y2="595.24" gradientTransform="matrix(90.6, 0, 0, -90.6, 26.72, 54001.62)" xlink:href="#a"/><linearGradient id="s" x1="-0.1" y1="595.38" x2="0.9" y2="595.38" gradientTransform="matrix(86.84, 0, 0, -86.84, 134.81, 51945.99)" gradientUnits="userSpaceOnUse"><stop offset="0" stop-color="#e6e6e6"/><stop offset="1" stop-color="#fff"/></linearGradient><linearGradient id="t" x1="-0.11" y1="595.42" x2="0.89" y2="595.42" gradientTransform="matrix(79.87, 0, 0, -79.87, 245.69, 47812.34)" xlink:href="#a"/><clipPath id="u"><rect class="u" x="-51.08" y="-65.03" width="483.45" height="652.86"/></clipPath><clipPath id="v"><rect class="u" x="0.15" y="153.13" width="103.25" height="151.97"/></clipPath><clipPath id="w"><path class="v" d="M.15,153.13c21,69,43.13,117.13,66,152,12.25-38,24.7-67.91,37.29-91.9A632.75,632.75,0,0,1,.15,153.13"/></clipPath><mask id="x" x="0.15" y="153.13" width="103.25" height="151.97" maskUnits="userSpaceOnUse"><rect class="a" x="0.15" y="153.13" width="103.25" height="151.97"/></mask><linearGradient id="y" x1="-0.1" y1="595.28" x2="0.9" y2="595.28" gradientTransform="matrix(103.25, 0, 0, -103.25, 10.15, 61693.06)" gradientUnits="userSpaceOnUse"><stop offset="0" stop-color="#fff"/><stop offset="1" stop-color="#231f20"/></linearGradient><clipPath id="z"><rect class="u" x="-42.55" y="153.13" width="108.66" height="218.53"/></clipPath><clipPath id="aa"><path class="v" d="M-42.55,371.67c32.83-35.92,69.72-55.21,108.66-66.56-22.83-34.85-44.95-83-66-152C-14.68,207.86-29,278.85-42.55,371.67"/></clipPath><mask id="ab" x="-42.55" y="153.13" width="108.66" height="218.53" maskUnits="userSpaceOnUse"><rect class="b" x="-42.55" y="153.13" width="108.66" height="218.53"/></mask><linearGradient id="ac" x1="-0.09" y1="595.28" x2="0.91" y2="595.28" gradientTransform="matrix(108.66, 0, 0, -108.66, -32.55, 64944.2)" xlink:href="#y"/><clipPath id="ad"><rect class="u" x="-39.48" y="-65.03" width="142.89" height="278.23"/></clipPath><clipPath id="ae"><path class="v" d="M-39.48-65C-26.82,22.26-13.57,93.85.15,153.13a632.75,632.75,0,0,0,103.25,60.07C52,162,3,80.57-39.48-65"/></clipPath><mask id="af" x="-178.6" y="-136.47" width="431.12" height="421.12" maskUnits="userSpaceOnUse"><rect class="m" x="-106.93" y="-74.8" width="297.78" height="297.78" transform="translate(-40.1 51.37) rotate(-45)"/></mask><linearGradient id="ag" x1="0.02" y1="595.25" x2="1.02" y2="595.25" gradientTransform="matrix(0, -297.78, -297.78, 0, 177284.63, 230.06)" xlink:href="#y"/><clipPath id="ah"><rect class="u" x="66.11" y="213.21" width="118.44" height="99.99"/></clipPath><clipPath id="ai"><path class="v" d="M103.41,213.21c-12.59,24-25,53.93-37.29,91.9,38.13,4.52,78.24,6.73,118.44,8.08-27.29-21.25-54.53-51.52-81.14-100"/></clipPath><mask id="aj" x="22.82" y="161.92" width="205.03" height="202.55" maskUnits="userSpaceOnUse"><rect class="n" x="49.05" y="190.29" width="152.56" height="145.81" transform="translate(-114.81 97.93) rotate(-30)"/></mask><linearGradient id="ak" x1="-0.09" y1="595.43" x2="0.91" y2="595.43" gradientTransform="matrix(98.53, 0, 0, -98.53, 61.75, 58928.41)" xlink:href="#y"/><clipPath id="al"><rect class="u" x="-42.55" y="305.11" width="147.86" height="119.24"/></clipPath><clipPath id="am"><path class="v" d="M66.11,305.11C27.17,316.46-9.72,335.74-42.55,371.67c43.68,51.11,94.54,56,147.87,51.25C92.07,392.46,79,354.16,66.11,305.11"/></clipPath><mask id="an" x="-95.63" y="241.08" width="254.03" height="250.64" maskUnits="userSpaceOnUse"><rect class="o" x="-63.29" y="276.35" width="189.35" height="180.1" transform="translate(-179 64.78) rotate(-30)"/></mask><linearGradient id="ao" x1="-0.07" y1="595.49" x2="0.93" y2="595.49" gradientTransform="matrix(127.38, 0, 0, -127.38, -26.61, 76219.49)" xlink:href="#y"/><clipPath id="ap"><rect class="u" x="184.55" y="312.32" width="107.48" height="31.78"/></clipPath><clipPath id="aq"><path class="v" d="M292,312.32c-35,.18-71.27.41-107.48.87a267.56,267.56,0,0,0,55.63,30.9A347.17,347.17,0,0,1,292,312.32"/></clipPath><mask id="ar" x="170.79" y="265.78" width="134.99" height="124.85" maskUnits="userSpaceOnUse"><rect class="p" x="183.8" y="287.58" width="108.96" height="81.26" transform="translate(-132.18 163.11) rotate(-30)"/></mask><linearGradient id="as" x1="-0.09" y1="595.2" x2="0.91" y2="595.2" gradientTransform="matrix(93.51, 0, 0, -93.51, 207.91, 55987.33)" xlink:href="#y"/><clipPath id="at"><rect class="u" x="292.02" y="312.32" width="98.46" height="38.62"/></clipPath><clipPath id="au"><path class="v" d="M390.48,321.25c-30.68-3.17-63.94-5.56-98.46-8.94,31,14.65,61.07,25.39,89.12,38.62q4.71-14.81,9.34-29.68"/></clipPath><mask id="av" x="275.3" y="269.68" width="131.9" height="123.89" maskUnits="userSpaceOnUse"><rect class="q" x="288.96" y="290.29" width="104.58" height="82.67" transform="translate(-120.09 215.06) rotate(-30)"/></mask><linearGradient id="aw" x1="-0.11" y1="595.31" x2="0.89" y2="595.31" gradientTransform="matrix(80.8, 0, 0, -80.8, 316.93, 48433.23)" xlink:href="#y"/><clipPath id="ax"><rect class="u" x="-39.48" y="-65.03" width="227.72" height="278.23"/></clipPath><clipPath id="ay"><path class="v" d="M-39.48-65C3,80.57,52,162,103.41,213.21c27.81-8.3,56.31-8.9,84.83-7.81C107,160.76,26,77.62-39.48-65"/></clipPath><mask id="az" x="-159.96" y="-163.63" width="478.68" height="475.44" maskUnits="userSpaceOnUse"><rect class="r" x="-83.79" y="-103.32" width="336.33" height="354.82" transform="translate(-25.74 52.11) rotate(-30)"/></mask><linearGradient id="ba" x1="-0.1" y1="595.3" x2="0.9" y2="595.3" gradientTransform="matrix(90.6, 0, 0, -90.6, 25.38, 54006.62)" xlink:href="#y"/><clipPath id="bb"><rect class="u" x="103.41" y="204.98" width="136.78" height="71.44"/></clipPath><clipPath id="bc"><path class="v" d="M188.24,205.4c-28.52-1.09-57-.49-84.83,7.81,44.74,33.43,91.26,51.76,136.78,63.22-17.22-18.4-34.59-41.06-51.95-71"/></clipPath><mask id="bd" x="72.18" y="145.08" width="199.23" height="190.57" maskUnits="userSpaceOnUse"><rect class="s" x="94.54" y="174.94" width="154.51" height="130.84" transform="translate(-97.17 118.1) rotate(-30)"/></mask><linearGradient id="be" x1="-0.1" y1="595.38" x2="0.9" y2="595.38" gradientTransform="matrix(86.84, 0, 0, -86.84, 134.81, 51945.99)" xlink:href="#y"/><clipPath id="bf"><rect class="u" x="240.18" y="236.05" width="93.32" height="42.57"/></clipPath><clipPath id="bg"><path class="v" d="M266.72,236.05c-8.8,12.1-17.65,25.33-26.54,40.37,31.92,1.83,63.35,2.73,93.32,1.89-21.62-10.9-44-23.77-66.77-42.26"/></clipPath><mask id="bh" x="221.52" y="195.65" width="130.64" height="123.91" maskUnits="userSpaceOnUse"><rect class="t" x="235.66" y="215.61" width="102.36" height="83.98" transform="translate(-90.37 177.93) rotate(-30)"/></mask><linearGradient id="bi" x1="-0.11" y1="595.42" x2="0.89" y2="595.42" gradientTransform="matrix(79.87, 0, 0, -79.87, 245.69, 47812.34)" xlink:href="#y"/><clipPath id="bj"><rect class="u" x="292.02" y="278.31" width="98.46" height="42.94"/></clipPath><clipPath id="bk"><path class="v" d="M333.5,278.31c-13.56,10.58-27.41,21.47-41.47,34,34.52,3.38,67.78,5.77,98.46,8.94-18.18-14.11-37.27-27.45-57-42.94"/></clipPath><mask id="bl" x="273.43" y="235.68" width="135.65" height="128.21" maskUnits="userSpaceOnUse"><rect class="c" x="287.88" y="256.57" width="106.74" height="86.42" transform="translate(-104.17 210.79) rotate(-30)"/></mask><linearGradient id="bm" x1="-0.11" y1="595.47" x2="0.89" y2="595.47" gradientTransform="matrix(80.8, 0, 0, -80.8, 301.02, 48414.09)" xlink:href="#y"/><clipPath id="bn"><rect class="u" x="184.55" y="276.42" width="107.48" height="36.77"/></clipPath><clipPath id="bo"><path class="v" d="M240.18,276.42a259.36,259.36,0,0,0-55.63,36.77c36.21-.46,72.49-.69,107.48-.87a342.43,342.43,0,0,1-51.84-35.9"/></clipPath><mask id="bp" x="168.63" y="229.88" width="139.32" height="129.85" maskUnits="userSpaceOnUse"><rect class="d" x="182.55" y="252.01" width="111.46" height="85.58" transform="translate(-115.48 158.64) rotate(-30)"/></mask><linearGradient id="bq" x1="-0.09" y1="595.48" x2="0.91" y2="595.48" gradientTransform="matrix(93.51, 0, 0, -93.51, 191.21, 55979.75)" xlink:href="#y"/><clipPath id="br"><rect class="u" x="103.41" y="213.21" width="136.78" height="99.99"/></clipPath><clipPath id="bs"><path class="v" d="M184.55,313.19c-27.29-21.25-54.53-51.52-81.14-100,44.74,33.43,91.26,51.76,136.78,63.22a259.36,259.36,0,0,0-55.63,36.77"/></clipPath><mask id="bt" x="60.11" y="153.98" width="223.37" height="218.44" maskUnits="userSpaceOnUse"><rect class="e" x="87.57" y="185.71" width="168.44" height="154.98" transform="translate(-108.58 121.16) rotate(-30)"/></mask><linearGradient id="bu" x1="-0.1" y1="595.18" x2="0.9" y2="595.18" gradientTransform="matrix(86.95, 0, 0, -86.95, 146.11, 52016.66)" xlink:href="#y"/><clipPath id="bv"><rect class="u" x="333.5" y="249.89" width="98.88" height="30.94"/></clipPath><clipPath id="bw"><path class="v" d="M432.37,280.23c-29.84,1-63.33,1-98.87-1.92,18.15-9.1,35.78-18.11,52.65-28.42,16.16,10.26,31.63,19.9,46.23,30.34"/></clipPath><mask id="bx" x="319.92" y="207.08" width="126.03" height="116.98" maskUnits="userSpaceOnUse"><rect class="f" x="332.28" y="227.27" width="101.3" height="76.59" transform="translate(-81.48 227.05) rotate(-30)"/></mask><linearGradient id="by" x1="-0.1" y1="595.48" x2="0.9" y2="595.48" gradientTransform="matrix(84.67, 0, 0, -84.67, 342.4, 50683.13)" xlink:href="#y"/><clipPath id="bz"><rect class="u" x="333.5" y="278.31" width="98.88" height="42.94"/></clipPath><clipPath id="ca"><path class="v" d="M390.48,321.25c-18.18-14.11-37.27-27.45-57-42.94,35.54,2.93,69,2.9,98.88,1.92a533.72,533.72,0,0,1-41.89,41"/></clipPath><mask id="cb" x="314.9" y="235.5" width="136.06" height="128.57" maskUnits="userSpaceOnUse"><rect class="g" x="329.38" y="256.47" width="107.1" height="86.63" transform="translate(-98.59 231.63) rotate(-30)"/></mask><linearGradient id="cc" x1="-0.1" y1="595.22" x2="0.9" y2="595.22" gradientTransform="matrix(84.67, 0, 0, -84.67, 359.52, 50695.01)" gradientUnits="userSpaceOnUse"><stop offset="0" stop-color="#fff"/><stop offset="0" stop-color="#fff"/><stop offset="1" stop-color="#231f20"/></linearGradient><clipPath id="cd"><rect class="u" x="188.24" y="205.4" width="78.49" height="71.02"/></clipPath><clipPath id="ce"><path class="v" d="M240.18,276.42c-17.22-18.4-34.59-41.06-51.95-71a384.9,384.9,0,0,0,78.49,30.65c-8.8,12.1-17.65,25.33-26.54,40.37"/></clipPath><mask id="cf" x="157.48" y="171.41" width="140" height="139" maskUnits="userSpaceOnUse"><rect class="h" x="175.74" y="190.53" width="103.48" height="100.75" transform="translate(-89.98 146.02) rotate(-30)"/></mask><linearGradient id="cg" x1="-0.16" y1="595.25" x2="0.84" y2="595.25" gradientTransform="matrix(52.65, 0, 0, -52.65, 219.91, 31578.19)" xlink:href="#y"/><clipPath id="ch"><rect class="u" x="266.72" y="236.05" width="119.42" height="42.26"/></clipPath><clipPath id="ci"><path class="v" d="M333.5,278.31c-21.62-10.9-44-23.77-66.77-42.26a377.49,377.49,0,0,0,119.42,13.84c-16.87,10.31-34.49,19.32-52.65,28.42"/></clipPath><mask id="cj" x="248.43" y="184.34" width="156.02" height="145.68" maskUnits="userSpaceOnUse"><rect class="i" x="264.16" y="209.03" width="124.55" height="96.31" transform="translate(-84.86 197.67) rotate(-30)"/></mask><linearGradient id="ck" x1="-0.09" y1="595.2" x2="0.91" y2="595.2" gradientTransform="matrix(96.5, 0, 0, -96.5, 293.95, 57695.22)" xlink:href="#y"/><clipPath id="cl"><rect class="u" x="105.32" y="313.19" width="134.86" height="109.73"/></clipPath><clipPath id="cm"><path class="v" d="M240.18,344.09c-44.87,14-90.71,36-134.86,78.82,26-52.74,52.6-86.11,79.23-109.73a267.56,267.56,0,0,0,55.63,30.9"/></clipPath><mask id="cn" x="57.81" y="254.79" width="229.89" height="226.52" maskUnits="userSpaceOnUse"><rect class="j" x="86.92" y="286.82" width="171.66" height="162.46" transform="translate(-160.88 135.68) rotate(-30)"/></mask><linearGradient id="co" x1="0.09" y1="595.3" x2="1.09" y2="595.3" gradientTransform="matrix(0, -55.41, -55.41, 0, 33159.14, 386.85)" xlink:href="#y"/><clipPath id="cp"><rect class="u" x="240.18" y="276.42" width="93.32" height="35.9"/></clipPath><clipPath id="cq"><path class="v" d="M292,312.32a342.43,342.43,0,0,1-51.84-35.9c31.92,1.83,63.35,2.73,93.32,1.89-13.56,10.58-27.41,21.47-41.47,34"/></clipPath><mask id="cr" x="224.64" y="236.01" width="124.4" height="116.71" maskUnits="userSpaceOnUse"><rect class="k" x="237.46" y="255.5" width="98.76" height="77.75" transform="translate(-108.76 182.86) rotate(-30)"/></mask><linearGradient id="cs" x1="0.09" y1="595.58" x2="1.09" y2="595.58" gradientTransform="matrix(0, -57.01, -57.01, 0, 34240.2, 317.51)" xlink:href="#y"/><clipPath id="ct"><rect class="u" x="66.11" y="305.11" width="118.44" height="117.81"/></clipPath><clipPath id="cu"><path class="v" d="M105.32,422.92C92.07,392.46,79,354.16,66.11,305.11c38.13,4.52,78.24,6.73,118.44,8.08-26.63,23.61-53.22,57-79.23,109.73"/></clipPath><mask id="cv" x="15.1" y="253.82" width="220.46" height="220.38" maskUnits="userSpaceOnUse"><rect class="l" x="44.59" y="283.39" width="161.47" height="161.24" transform="translate(-165.22 111.43) rotate(-30)"/></mask><linearGradient id="cw" x1="-0.07" y1="595.16" x2="0.93" y2="595.16" gradientTransform="matrix(123.48, 0, 0, -123.48, 87.21, 73852.71)" gradientUnits="userSpaceOnUse"><stop offset="0" stop-color="#bcbec0"/><stop offset="1" stop-color="#231f20"/></linearGradient></defs><title>bg-menu-2</title><g class="w"><g class="x"><g class="y"><g class="z"><g class="aa"><g class="ab"><g class="ac"><rect class="ad" x="0.15" y="153.13" width="103.25" height="151.97"/></g></g></g></g><g class="z"><g class="ae"><g class="af"><g class="ag"><rect class="ah" x="-42.55" y="153.13" width="108.66" height="218.53"/></g></g></g></g><g class="z"><g class="ai"><g class="aj"><g class="ak"><rect class="al" x="-116.93" y="-74.8" width="297.78" height="297.78" transform="translate(-43.03 44.3) rotate(-45)"/></g></g></g></g><g class="z"><g class="am"><g class="an"><g class="ao"><rect class="ap" x="49.05" y="190.29" width="152.56" height="145.81" transform="translate(-114.81 97.93) rotate(-30)"/></g></g></g></g><g class="z"><g class="aq"><g class="ar"><g class="as"><rect class="at" x="-63.29" y="276.35" width="189.35" height="180.1" transform="translate(-179 64.78) rotate(-30)"/></g></g></g></g><g class="z"><g class="au"><g class="av"><g class="aw"><rect class="ax" x="183.8" y="287.58" width="108.96" height="81.26" transform="translate(-132.18 163.11) rotate(-30)"/></g></g></g></g><g class="z"><g class="ay"><g class="az"><g class="ba"><rect class="bb" x="288.96" y="290.29" width="104.58" height="82.67" transform="translate(-120.09 215.06) rotate(-30)"/></g></g></g></g><g class="z"><g class="bc"><g class="bd"><g class="be"><rect class="bf" x="-93.79" y="-103.32" width="336.33" height="354.82" transform="translate(-27.08 47.11) rotate(-30)"/></g></g></g></g><g class="z"><g class="bg"><g class="bh"><g class="bi"><rect class="bj" x="94.54" y="174.94" width="154.51" height="130.84" transform="translate(-97.17 118.1) rotate(-30)"/></g></g></g></g><g class="z"><g class="bk"><g class="bl"><g class="bm"><rect class="bn" x="235.66" y="215.61" width="102.36" height="83.98" transform="translate(-90.37 177.93) rotate(-30)"/></g></g></g></g><g class="bo"><g class="bp"><g class="bq"><g class="br"><rect class="bs" x="287.88" y="256.57" width="106.74" height="86.42" transform="translate(-104.17 210.79) rotate(-30)"/></g></g></g></g><g class="z"><g class="bt"><g class="bu"><g class="bv"><rect class="bw" x="182.55" y="252.01" width="111.46" height="85.58" transform="translate(-115.48 158.64) rotate(-30)"/></g></g></g></g><g class="z"><g class="bx"><g class="by"><g class="bz"><rect class="ca" x="87.57" y="185.71" width="168.44" height="154.98" transform="translate(-108.58 121.16) rotate(-30)"/></g></g></g></g><g class="z"><g class="cb"><g class="cc"><g class="cd"><rect class="ce" x="332.28" y="227.27" width="101.3" height="76.59" transform="translate(-81.48 227.05) rotate(-30)"/></g></g></g></g><g class="z"><g class="cf"><g class="cg"><g class="ch"><rect class="ci" x="329.38" y="256.47" width="107.1" height="86.63" transform="translate(-98.59 231.63) rotate(-30)"/></g></g></g></g><g class="z"><g class="cj"><g class="ck"><g class="cl"><rect class="cm" x="175.74" y="190.53" width="103.48" height="100.75" transform="translate(-89.98 146.02) rotate(-30)"/></g></g></g></g><g class="bo"><g class="cn"><g class="co"><g class="cp"><rect class="cq" x="264.16" y="209.03" width="124.55" height="96.31" transform="translate(-84.86 197.67) rotate(-30)"/></g></g></g></g><g class="z"><g class="cr"><g class="cs"><g class="ct"><rect class="cu" x="86.92" y="286.82" width="171.66" height="162.46" transform="translate(-160.88 135.68) rotate(-30)"/></g></g></g></g><g class="bo"><g class="cv"><g class="cw"><g class="cx"><rect class="cy" x="237.46" y="255.5" width="98.76" height="77.75" transform="translate(-108.76 182.86) rotate(-30)"/></g></g></g></g><g class="z"><g class="cz"><g class="da"><g class="db"><rect class="dc" x="44.59" y="283.39" width="161.47" height="161.24" transform="translate(-165.22 111.43) rotate(-30)"/></g></g></g></g></g></g></g></svg>